<svg data-v-423bf9ae="" xmlns="http://www.w3.org/2000/svg" viewBox="0 0 337 90" class="iconLeft"><!----><!----><!----><g data-v-423bf9ae="" id="cf0dee39-0d15-4d2e-a9aa-08ab8a1ff48d" fill="white" transform="matrix(4.8,0,0,4.8,81.13401129245759,6.935999441146855)"><path d="M7.28 4.62C7.28 2.87 6.08 1.86 4.10 1.86L0.60 1.86L0.94 3.16L0.94 10.26L2.80 10.26L2.80 7.36L4.10 7.36C6.08 7.36 7.28 6.37 7.28 4.62ZM5.32 4.62C5.32 5.40 4.87 5.78 4.10 5.78L2.80 5.78L2.80 3.44L4.10 3.44C4.87 3.44 5.32 3.82 5.32 4.62ZM14.94 10.26L14.94 8.72C14.74 8.79 14.52 8.86 14.28 8.86C13.96 8.86 13.82 8.74 13.82 8.39L13.82 6.06C13.82 4.45 12.53 3.54 10.60 3.54C9.91 3.54 9.16 3.70 8.40 3.88L8.40 6.13L9.00 6.13L9.67 5.19C10.01 5.15 10.30 5.12 10.60 5.12C11.49 5.12 11.94 5.50 11.94 6.06L11.94 6.24L10.46 6.24C8.74 6.24 7.74 7.15 7.74 8.34C7.74 9.55 8.74 10.44 10.46 10.44C11.16 10.44 11.83 10.22 12.36 9.91C12.66 10.26 13.17 10.44 13.82 10.44C14.20 10.44 14.64 10.36 14.94 10.26ZM11.94 8.64C11.49 8.90 10.95 9.04 10.46 9.04C9.88 9.04 9.62 8.79 9.62 8.34C9.62 7.91 9.88 7.64 10.46 7.64L11.94 7.64ZM21.74 4.06L21.50 3.99C20.50 3.71 19.40 3.54 18.40 3.54C16.62 3.54 15.40 4.52 15.40 6.06C15.40 7.31 16.20 8.19 17.46 8.48C17.37 8.54 17.28 8.69 17.28 8.86C17.28 9.03 17.37 9.18 17.46 9.24C16.20 9.53 15.40 10.42 15.40 11.66C15.40 13.20 16.62 14.18 18.40 14.18C20.17 14.18 21.38 13.20 21.38 11.66C21.38 10.50 20.69 9.66 19.59 9.31C19.28 9.21 19.14 9.07 19.14 8.86C19.14 8.65 19.28 8.51 19.59 8.41C20.66 8.08 21.38 7.22 21.38 6.06L21.38 5.36ZM19.52 5.26L19.52 6.06C19.52 6.64 19.08 7 18.40 7C17.71 7 17.28 6.64 17.28 6.06C17.28 5.49 17.71 5.12 18.40 5.12C18.79 5.12 19.19 5.18 19.52 5.26ZM19.52 11.66C19.52 12.24 19.08 12.60 18.40 12.60C17.71 12.60 17.28 12.24 17.28 11.66C17.28 11.09 17.71 10.72 18.40 10.72C19.08 10.72 19.52 11.09 19.52 11.66ZM28.74 7C28.74 4.93 27.62 3.54 25.61 3.54C23.63 3.54 22.39 4.93 22.39 7C22.39 9.14 23.81 10.44 26.22 10.44C26.87 10.44 27.59 10.30 28.18 10.09L28.18 8.51C27.58 8.71 26.92 8.86 26.22 8.86C25.23 8.86 24.49 8.50 24.32 7.64L28.70 7.64C28.73 7.43 28.74 7.22 28.74 7ZM26.89 6.16L24.35 6.16C24.46 5.45 24.96 5.01 25.61 5.01C26.26 5.01 26.77 5.38 26.89 6.16ZM38.07 6.06C38.07 3.50 36.51 1.68 33.82 1.68C31.14 1.68 29.58 3.50 29.58 6.06C29.58 8.62 31.14 10.44 33.82 10.44C36.51 10.44 38.07 8.62 38.07 6.06ZM36.02 6.06C36.02 7.85 35.27 8.76 33.82 8.76C32.38 8.76 31.63 7.85 31.63 6.06C31.63 4.27 32.38 3.36 33.82 3.36C35.27 3.36 36.02 4.27 36.02 6.06ZM46.42 10.26L46.42 9.66L45.44 8.96L45.44 6.06C45.44 4.52 44.24 3.54 42.46 3.54C41.44 3.54 40.35 3.71 39.34 3.99L39.10 4.06L39.47 5.36L39.47 10.26L41.34 10.26L41.34 5.26C41.65 5.18 42.06 5.12 42.46 5.12C43.15 5.12 43.58 5.49 43.58 6.06L43.58 10.26ZM53.28 7C53.28 4.93 52.16 3.54 50.15 3.54C48.17 3.54 46.93 4.93 46.93 7C46.93 9.14 48.36 10.44 50.76 10.44C51.41 10.44 52.14 10.30 52.72 10.09L52.72 8.51C52.12 8.71 51.46 8.86 50.76 8.86C49.77 8.86 49.03 8.50 48.86 7.64L53.24 7.64C53.27 7.43 53.28 7.22 53.28 7ZM51.44 6.16L48.89 6.16C49 5.45 49.50 5.01 50.15 5.01C50.81 5.01 51.31 5.38 51.44 6.16Z"></path></g><!----><g data-v-423bf9ae="" id="7f3727d1-64c4-4ac1-bba9-bb1325749b62" transform="matrix(1,0,0,1,-17.007003784179688,-5)" stroke="none" fill="white"><path d="M50 5C32.323 5 17.994 19.33 17.993 37.007 17.993 54.683 50.974 95 50.974 95s31.033-40.317 31.033-57.993C82.007 19.33 67.677 5 50 5zm0 6.497a25.51 25.51 0 0 1 25.51 25.51A25.51 25.51 0 0 1 50 62.517a25.51 25.51 0 0 1-25.51-25.51A25.51 25.51 0 0 1 50 11.497z"></path><path style="line-height:normal;text-indent:0;text-align:start;text-decoration-line:none;text-decoration-style:solid;text-decoration-color:#000;text-transform:none;block-progression:tb;isolation:auto;mix-blend-mode:normal" d="M52.83 20.799c-5.063 2.559-15.272 7.66-15.272 7.66v5.508l9.24 19.25.946-.193L62.441 43.4v-1.023L47.707 51.96l-.04-4.109 14.599-9.125-9.436-17.93z" color="#000" font-weight="400" font-family="sans-serif" white-space="normal" overflow="visible"></path></g><!----></svg>